<svg width="23" height="15" viewBox="0 0 23 15" fill="none" xmlns="http://www.w3.org/2000/svg">
<g filter="url(#filter0_i_730_26)">
<path d="M6.7366 11.762C5.50156 11.762 4.5023 12.3264 4.5023 13.0162C4.5023 13.706 5.50156 14.2704 6.7366 14.2704C7.97164 14.2704 8.98213 13.706 8.98213 13.0162C8.98213 12.3264 7.97164 11.762 6.7366 11.762ZM17.9643 11.762C16.7292 11.762 15.73 12.3264 15.73 13.0162C15.73 13.706 16.7292 14.2704 17.9643 14.2704C19.1993 14.2704 20.2098 13.706 20.2098 13.0162C20.2098 12.3264 19.1993 11.762 17.9643 11.762ZM7.97164 8.62656H16.3363C17.1783 8.62656 17.9194 8.36945 18.3011 7.98065L21.9389 4.13029C22.2196 3.82928 22.0287 3.45303 21.4898 3.28998C20.9396 3.12067 20.2547 3.23981 19.9628 3.54709L16.3363 7.37237H8.45443L3.67145 1.72852H1.12277C0.505245 1.72852 0 2.01071 0 2.35561C0 2.70051 0.505245 2.98271 1.12277 2.98271H2.24553L6.28749 7.74236L4.77176 9.27247C3.95214 10.1128 5.02999 11.1349 6.7366 11.1349H19.087C19.7046 11.1349 20.2098 10.8527 20.2098 10.5078C20.2098 10.1629 19.7046 9.88075 19.087 9.88075H6.7366L7.97164 8.62656Z" fill="#FDFDFD"/>
</g>
<g filter="url(#filter1_i_730_26)">
<path d="M12.4911 5.01676C13.1086 5.01676 13.6138 4.73457 13.6138 4.38966V3.13547H15.8594C16.4769 3.13547 16.9821 2.85328 16.9821 2.50838C16.9821 2.16348 16.4769 1.88128 15.8594 1.88128H13.6138V0.627095C13.6138 0.282193 13.1086 0 12.4911 0C11.8735 0 11.3683 0.282193 11.3683 0.627095V1.88128H9.12277C8.50525 1.88128 8 2.16348 8 2.50838C8 2.85328 8.50525 3.13547 9.12277 3.13547H11.3683V4.38966C11.3683 4.73457 11.8735 5.01676 12.4911 5.01676Z" fill="#FDFDFD"/>
</g>
<defs>
<filter id="filter0_i_730_26" x="0" y="1.72852" width="22.0674" height="12.541" filterUnits="userSpaceOnUse" color-interpolation-filters="sRGB">
<feFlood flood-opacity="0" result="BackgroundImageFix"/>
<feBlend mode="normal" in="SourceGraphic" in2="BackgroundImageFix" result="shape"/>
<feColorMatrix in="SourceAlpha" type="matrix" values="0 0 0 0 0 0 0 0 0 0 0 0 0 0 0 0 0 0 127 0" result="hardAlpha"/>
<feOffset dx="0.5" dy="0.5"/>
<feComposite in2="hardAlpha" operator="arithmetic" k2="-1" k3="1"/>
<feColorMatrix type="matrix" values="0 0 0 0 0.12549 0 0 0 0 0.12549 0 0 0 0 0.12549 0 0 0 0.2 0"/>
<feBlend mode="normal" in2="shape" result="effect1_innerShadow_730_26"/>
</filter>
<filter id="filter1_i_730_26" x="8" y="0" width="8.98242" height="5.01758" filterUnits="userSpaceOnUse" color-interpolation-filters="sRGB">
<feFlood flood-opacity="0" result="BackgroundImageFix"/>
<feBlend mode="normal" in="SourceGraphic" in2="BackgroundImageFix" result="shape"/>
<feColorMatrix in="SourceAlpha" type="matrix" values="0 0 0 0 0 0 0 0 0 0 0 0 0 0 0 0 0 0 127 0" result="hardAlpha"/>
<feOffset dx="0.5" dy="0.5"/>
<feComposite in2="hardAlpha" operator="arithmetic" k2="-1" k3="1"/>
<feColorMatrix type="matrix" values="0 0 0 0 0.12549 0 0 0 0 0.12549 0 0 0 0 0.12549 0 0 0 0.2 0"/>
<feBlend mode="normal" in2="shape" result="effect1_innerShadow_730_26"/>
</filter>
</defs>
</svg>
