<svg width="21" height="22" viewBox="0 0 21 22" fill="none" xmlns="http://www.w3.org/2000/svg">
<path d="M19.8238 3.9375H16.3762V1.75C16.3762 0.784766 15.6032 0 14.6524 0H6.03334C5.08255 0 4.30953 0.784766 4.30953 1.75V3.9375H0.861906C0.385164 3.9375 0 4.32852 0 4.8125V5.6875C0 5.80781 0.0969644 5.90625 0.215476 5.90625H1.84232L2.50761 20.207C2.5507 21.1395 3.31026 21.875 4.22873 21.875H16.457C17.3782 21.875 18.135 21.1422 18.1781 20.207L18.8434 5.90625H20.4703C20.5888 5.90625 20.6857 5.80781 20.6857 5.6875V4.8125C20.6857 4.32852 20.3006 3.9375 19.8238 3.9375ZM14.4369 3.9375H6.24882V1.96875H14.4369V3.9375Z" fill="#DC2626"/>
</svg>
